<mxfile host="app.diagrams.net" agent="Mozilla/5.0 (Macintosh; Intel Mac OS X 10_15_7) AppleWebKit/537.36 (KHTML, like Gecko) Chrome/138.0.0.0 Safari/537.36" version="28.0.7">
  <diagram name="Page-1" id="X1KAmGf1MMdnkVqydC5e">
    <mxGraphModel dx="1255" dy="836" grid="1" gridSize="10" guides="1" tooltips="1" connect="1" arrows="1" fold="1" page="1" pageScale="1" pageWidth="827" pageHeight="1169" math="0" shadow="0">
      <root>
        <mxCell id="0" />
        <mxCell id="1" parent="0" />
        <mxCell id="ycYpgXqG4rscxflEGkwE-11" value="http:8089" style="edgeStyle=orthogonalEdgeStyle;rounded=0;orthogonalLoop=1;jettySize=auto;html=1;entryX=0;entryY=0.5;entryDx=0;entryDy=0;" edge="1" parent="1" source="ycYpgXqG4rscxflEGkwE-1" target="ycYpgXqG4rscxflEGkwE-10">
          <mxGeometry relative="1" as="geometry">
            <mxPoint as="offset" />
          </mxGeometry>
        </mxCell>
        <mxCell id="ycYpgXqG4rscxflEGkwE-15" value="grpc:5611" style="edgeStyle=orthogonalEdgeStyle;rounded=0;orthogonalLoop=1;jettySize=auto;html=1;entryX=0;entryY=0.5;entryDx=0;entryDy=0;" edge="1" parent="1" source="ycYpgXqG4rscxflEGkwE-1" target="ycYpgXqG4rscxflEGkwE-7">
          <mxGeometry relative="1" as="geometry" />
        </mxCell>
        <mxCell id="ycYpgXqG4rscxflEGkwE-16" value="grpc:5612" style="edgeStyle=orthogonalEdgeStyle;rounded=0;orthogonalLoop=1;jettySize=auto;html=1;entryX=0;entryY=0.5;entryDx=0;entryDy=0;" edge="1" parent="1" source="ycYpgXqG4rscxflEGkwE-1" target="ycYpgXqG4rscxflEGkwE-8">
          <mxGeometry relative="1" as="geometry" />
        </mxCell>
        <mxCell id="ycYpgXqG4rscxflEGkwE-17" value="http:8081" style="edgeStyle=orthogonalEdgeStyle;rounded=0;orthogonalLoop=1;jettySize=auto;html=1;entryX=0;entryY=0.5;entryDx=0;entryDy=0;" edge="1" parent="1" source="ycYpgXqG4rscxflEGkwE-1" target="ycYpgXqG4rscxflEGkwE-9">
          <mxGeometry relative="1" as="geometry">
            <Array as="points">
              <mxPoint x="420" y="410" />
              <mxPoint x="420" y="710" />
            </Array>
          </mxGeometry>
        </mxCell>
        <mxCell id="ycYpgXqG4rscxflEGkwE-1" value="http_gateway" style="rounded=0;whiteSpace=wrap;html=1;" vertex="1" parent="1">
          <mxGeometry x="250" y="380" width="120" height="60" as="geometry" />
        </mxCell>
        <mxCell id="ycYpgXqG4rscxflEGkwE-5" style="edgeStyle=orthogonalEdgeStyle;rounded=0;orthogonalLoop=1;jettySize=auto;html=1;entryX=0;entryY=0.5;entryDx=0;entryDy=0;" edge="1" parent="1" source="ycYpgXqG4rscxflEGkwE-3" target="ycYpgXqG4rscxflEGkwE-1">
          <mxGeometry relative="1" as="geometry" />
        </mxCell>
        <mxCell id="ycYpgXqG4rscxflEGkwE-3" value="Actor" style="shape=umlActor;verticalLabelPosition=bottom;verticalAlign=top;html=1;outlineConnect=0;" vertex="1" parent="1">
          <mxGeometry x="140" y="380" width="30" height="60" as="geometry" />
        </mxCell>
        <mxCell id="ycYpgXqG4rscxflEGkwE-6" value="user-service" style="rounded=0;whiteSpace=wrap;html=1;" vertex="1" parent="1">
          <mxGeometry x="750" y="110" width="120" height="60" as="geometry" />
        </mxCell>
        <mxCell id="ycYpgXqG4rscxflEGkwE-19" value="update newsfeed of followerr" style="edgeStyle=orthogonalEdgeStyle;rounded=0;orthogonalLoop=1;jettySize=auto;html=1;" edge="1" parent="1" source="ycYpgXqG4rscxflEGkwE-7" target="ycYpgXqG4rscxflEGkwE-18">
          <mxGeometry relative="1" as="geometry" />
        </mxCell>
        <mxCell id="ycYpgXqG4rscxflEGkwE-7" value="post-service" style="rounded=0;whiteSpace=wrap;html=1;" vertex="1" parent="1">
          <mxGeometry x="750" y="200" width="120" height="60" as="geometry" />
        </mxCell>
        <mxCell id="ycYpgXqG4rscxflEGkwE-8" value="newsfeed-service" style="rounded=0;whiteSpace=wrap;html=1;" vertex="1" parent="1">
          <mxGeometry x="750" y="585" width="120" height="60" as="geometry" />
        </mxCell>
        <mxCell id="ycYpgXqG4rscxflEGkwE-9" value="message-service" style="rounded=0;whiteSpace=wrap;html=1;" vertex="1" parent="1">
          <mxGeometry x="750" y="680" width="120" height="60" as="geometry" />
        </mxCell>
        <mxCell id="ycYpgXqG4rscxflEGkwE-12" value="grpc:5619" style="edgeStyle=orthogonalEdgeStyle;rounded=0;orthogonalLoop=1;jettySize=auto;html=1;" edge="1" parent="1" source="ycYpgXqG4rscxflEGkwE-10" target="ycYpgXqG4rscxflEGkwE-6">
          <mxGeometry relative="1" as="geometry" />
        </mxCell>
        <mxCell id="ycYpgXqG4rscxflEGkwE-14" value="grpc:5610" style="edgeStyle=orthogonalEdgeStyle;rounded=0;orthogonalLoop=1;jettySize=auto;html=1;entryX=0;entryY=0.5;entryDx=0;entryDy=0;" edge="1" parent="1" source="ycYpgXqG4rscxflEGkwE-10" target="ycYpgXqG4rscxflEGkwE-13">
          <mxGeometry relative="1" as="geometry">
            <Array as="points">
              <mxPoint x="600" y="140" />
              <mxPoint x="600" y="40" />
            </Array>
          </mxGeometry>
        </mxCell>
        <mxCell id="ycYpgXqG4rscxflEGkwE-10" value="nginx" style="rounded=0;whiteSpace=wrap;html=1;" vertex="1" parent="1">
          <mxGeometry x="460" y="110" width="120" height="60" as="geometry" />
        </mxCell>
        <mxCell id="ycYpgXqG4rscxflEGkwE-24" style="edgeStyle=orthogonalEdgeStyle;rounded=0;orthogonalLoop=1;jettySize=auto;html=1;" edge="1" parent="1" source="ycYpgXqG4rscxflEGkwE-13" target="ycYpgXqG4rscxflEGkwE-23">
          <mxGeometry relative="1" as="geometry" />
        </mxCell>
        <mxCell id="ycYpgXqG4rscxflEGkwE-13" value="user-service" style="rounded=0;whiteSpace=wrap;html=1;" vertex="1" parent="1">
          <mxGeometry x="750" y="10" width="120" height="60" as="geometry" />
        </mxCell>
        <mxCell id="ycYpgXqG4rscxflEGkwE-20" style="edgeStyle=orthogonalEdgeStyle;rounded=0;orthogonalLoop=1;jettySize=auto;html=1;" edge="1" parent="1" source="ycYpgXqG4rscxflEGkwE-18" target="ycYpgXqG4rscxflEGkwE-8">
          <mxGeometry relative="1" as="geometry" />
        </mxCell>
        <mxCell id="ycYpgXqG4rscxflEGkwE-18" value="kafka" style="shape=process;whiteSpace=wrap;html=1;backgroundOutline=1;rotation=90;" vertex="1" parent="1">
          <mxGeometry x="750" y="390" width="120" height="60" as="geometry" />
        </mxCell>
        <mxCell id="ycYpgXqG4rscxflEGkwE-21" value="redis" style="shape=cylinder3;whiteSpace=wrap;html=1;boundedLbl=1;backgroundOutline=1;size=15;" vertex="1" parent="1">
          <mxGeometry x="990" y="575" width="60" height="80" as="geometry" />
        </mxCell>
        <mxCell id="ycYpgXqG4rscxflEGkwE-22" style="edgeStyle=orthogonalEdgeStyle;rounded=0;orthogonalLoop=1;jettySize=auto;html=1;entryX=0;entryY=0.5;entryDx=0;entryDy=0;entryPerimeter=0;" edge="1" parent="1" source="ycYpgXqG4rscxflEGkwE-8" target="ycYpgXqG4rscxflEGkwE-21">
          <mxGeometry relative="1" as="geometry" />
        </mxCell>
        <mxCell id="ycYpgXqG4rscxflEGkwE-23" value="mysql" style="shape=cylinder3;whiteSpace=wrap;html=1;boundedLbl=1;backgroundOutline=1;size=15;" vertex="1" parent="1">
          <mxGeometry x="990" width="60" height="80" as="geometry" />
        </mxCell>
        <mxCell id="ycYpgXqG4rscxflEGkwE-25" value="mysql" style="shape=cylinder3;whiteSpace=wrap;html=1;boundedLbl=1;backgroundOutline=1;size=15;" vertex="1" parent="1">
          <mxGeometry x="990" y="190" width="60" height="80" as="geometry" />
        </mxCell>
        <mxCell id="ycYpgXqG4rscxflEGkwE-26" style="edgeStyle=orthogonalEdgeStyle;rounded=0;orthogonalLoop=1;jettySize=auto;html=1;entryX=0;entryY=0.5;entryDx=0;entryDy=0;entryPerimeter=0;" edge="1" parent="1" source="ycYpgXqG4rscxflEGkwE-6" target="ycYpgXqG4rscxflEGkwE-23">
          <mxGeometry relative="1" as="geometry" />
        </mxCell>
        <mxCell id="ycYpgXqG4rscxflEGkwE-27" style="edgeStyle=orthogonalEdgeStyle;rounded=0;orthogonalLoop=1;jettySize=auto;html=1;entryX=0;entryY=0.5;entryDx=0;entryDy=0;entryPerimeter=0;" edge="1" parent="1" source="ycYpgXqG4rscxflEGkwE-7" target="ycYpgXqG4rscxflEGkwE-25">
          <mxGeometry relative="1" as="geometry" />
        </mxCell>
      </root>
    </mxGraphModel>
  </diagram>
</mxfile>
